<?xml version="1.0" encoding="UTF-8" standalone="no"?>
<!DOCTYPE svg PUBLIC "-//W3C//DTD SVG 1.1//EN" "http://www.w3.org/Graphics/SVG/1.1/DTD/svg11.dtd">
<svg version="1.1" xmlns="http://www.w3.org/2000/svg" xmlns:xlink="http://www.w3.org/1999/xlink" preserveAspectRatio="xMidYMid meet" viewBox="0 0 28 18" width="28" height="18"><defs><path d="M24.5 0C26.43 0 28 1.56 28 3.5C28 6.4 28 11.6 28 14.5C28 16.43 26.43 18 24.5 18C19.6 18 8.4 18 3.5 18C1.57 18 0 16.43 0 14.5C0 11.6 0 6.4 0 3.5C0 1.56 1.57 0 3.5 0C8.4 0 19.6 0 24.5 0Z" id="c1EGwVDinI"></path><path d="M18 9C18 10.93 16.43 12.5 14.5 12.5C12.57 12.5 11 10.93 11 9C11 7.07 12.57 5.5 14.5 5.5C16.43 5.5 18 7.07 18 9Z" id="b34mbTQGZS"></path></defs><g><g><g><use xlink:href="#c1EGwVDinI" opacity="1" fill="#5a465a" fill-opacity="1"></use></g><g><use xlink:href="#b34mbTQGZS" opacity="1" fill="#ffffff" fill-opacity="1"></use></g></g></g></svg>