<?xml version="1.0" encoding="UTF-8" standalone="no"?>
<!DOCTYPE svg PUBLIC "-//W3C//DTD SVG 1.1//EN" "http://www.w3.org/Graphics/SVG/1.1/DTD/svg11.dtd">
<svg version="1.1" xmlns="http://www.w3.org/2000/svg" xmlns:xlink="http://www.w3.org/1999/xlink" preserveAspectRatio="xMidYMid meet" viewBox="0 0 28 18" width="28" height="18"><defs><path d="M24.5 0C26.43 0 28 1.56 28 3.5C28 6.4 28 11.6 28 14.5C28 16.43 26.43 18 24.5 18C19.6 18 8.4 18 3.5 18C1.57 18 0 16.43 0 14.5C0 11.6 0 6.4 0 3.5C0 1.56 1.57 0 3.5 0C8.4 0 19.6 0 24.5 0Z" id="cWuiEMq4h"></path><path d="M20.61 9.76C20.61 10.27 20.26 10.69 19.83 10.69C19.4 10.69 19.05 10.27 19.05 9.76C19.05 9.25 19.4 8.83 19.83 8.83C20.26 8.83 20.61 9.25 20.61 9.76Z" id="a1XfFAXJnL"></path><path d="M20.75 9.35C20.75 9.87 20.4 10.28 19.97 10.28C19.54 10.28 19.19 9.87 19.19 9.35C19.19 8.84 19.54 8.43 19.97 8.43C20.4 8.43 20.75 8.84 20.75 9.35Z" id="cGmXhhwEB"></path><path d="M20.53 9C20.53 9.51 20.18 9.93 19.75 9.93C19.32 9.93 18.97 9.51 18.97 9C18.97 8.49 19.32 8.07 19.75 8.07C20.18 8.07 20.53 8.49 20.53 9Z" id="b1dnofiWYX"></path><path d="M20.84 9.76C20.84 10.27 20.49 10.69 20.06 10.69C19.63 10.69 19.28 10.27 19.28 9.76C19.28 9.25 19.63 8.83 20.06 8.83C20.49 8.83 20.84 9.25 20.84 9.76Z" id="azTuO4f"></path><path d="M20.75 10.69C20.75 11.2 20.4 11.62 19.97 11.62C19.54 11.62 19.19 11.2 19.19 10.69C19.19 10.18 19.54 9.76 19.97 9.76C20.4 9.76 20.75 10.18 20.75 10.69Z" id="a3W1QF9MSF"></path><path d="M20.84 10.28C20.84 10.79 20.49 11.21 20.06 11.21C19.63 11.21 19.28 10.79 19.28 10.28C19.28 9.77 19.63 9.35 20.06 9.35C20.49 9.35 20.84 9.77 20.84 10.28Z" id="b44F6g52Eh"></path><path d="M18 9C18 10.93 16.43 12.5 14.5 12.5C12.57 12.5 11 10.93 11 9C11 7.07 12.57 5.5 14.5 5.5C16.43 5.5 18 7.07 18 9Z" id="b1EfXC8ScG"></path></defs><g><g><g><use xlink:href="#cWuiEMq4h" opacity="1" fill="#00a0a0" fill-opacity="1"></use></g><g><use xlink:href="#a1XfFAXJnL" opacity="1" fill="#00a0a0" fill-opacity="1"></use></g><g><use xlink:href="#cGmXhhwEB" opacity="1" fill="#00a0a0" fill-opacity="1"></use></g><g><use xlink:href="#b1dnofiWYX" opacity="1" fill="#00a0a0" fill-opacity="1"></use></g><g><use xlink:href="#azTuO4f" opacity="1" fill="#00a0a0" fill-opacity="1"></use></g><g><use xlink:href="#a3W1QF9MSF" opacity="1" fill="#00a0a0" fill-opacity="1"></use></g><g><use xlink:href="#b44F6g52Eh" opacity="1" fill="#00a0a0" fill-opacity="1"></use></g><g><use xlink:href="#b1EfXC8ScG" opacity="1" fill="#ffffff" fill-opacity="1"></use></g></g></g></svg>