<?xml version="1.0" encoding="UTF-8" standalone="no"?>
<!DOCTYPE svg PUBLIC "-//W3C//DTD SVG 1.1//EN" "http://www.w3.org/Graphics/SVG/1.1/DTD/svg11.dtd">
<svg version="1.1" xmlns="http://www.w3.org/2000/svg" xmlns:xlink="http://www.w3.org/1999/xlink" preserveAspectRatio="xMidYMid meet" viewBox="0 0 20 20" width="20" height="20"><defs><path d="M15 0C17.76 0 20 2.24 20 5C20 8 20 12 20 15C20 17.76 17.76 20 15 20C12 20 8 20 5 20C2.24 20 0 17.76 0 15C0 12 0 8 0 5C0 2.24 2.24 0 5 0C8 0 12 0 15 0Z" id="aY03roATR"></path><path d="M13.73 8.25C13.73 11.42 11.15 14 7.98 14C4.81 14 2.23 11.42 2.23 8.25C2.23 5.08 4.81 2.5 7.98 2.5C11.15 2.5 13.73 5.08 13.73 8.25Z" id="cW7P2ky0b"></path><path d="M17.67 12.06C17.67 15.24 15.09 17.81 11.92 17.81C8.74 17.81 6.17 15.24 6.17 12.06C6.17 8.89 8.74 6.31 11.92 6.31C15.09 6.31 17.67 8.89 17.67 12.06Z" id="c7zR9phi"></path></defs><g><g><g><use xlink:href="#aY03roATR" opacity="1" fill="#5a465a" fill-opacity="1"></use></g><g><use xlink:href="#cW7P2ky0b" opacity="1" fill="#90f720" fill-opacity="0"></use><g><use xlink:href="#cW7P2ky0b" opacity="1" fill-opacity="0" stroke="#ffffff" stroke-width="2" stroke-opacity="1"></use></g></g><g><use xlink:href="#c7zR9phi" opacity="1" fill="#90f720" fill-opacity="0"></use><g><use xlink:href="#c7zR9phi" opacity="1" fill-opacity="0" stroke="#ffffff" stroke-width="2" stroke-opacity="1"></use></g></g></g></g></svg>