<?xml version="1.0" encoding="UTF-8" standalone="no"?>
<!DOCTYPE svg PUBLIC "-//W3C//DTD SVG 1.1//EN" "http://www.w3.org/Graphics/SVG/1.1/DTD/svg11.dtd">
<svg version="1.1" xmlns="http://www.w3.org/2000/svg" xmlns:xlink="http://www.w3.org/1999/xlink" preserveAspectRatio="xMidYMid meet" viewBox="0 0 28 18" width="28" height="18"><defs><path d="M24.5 0C26.43 0 28 1.56 28 3.5C28 6.4 28 11.6 28 14.5C28 16.43 26.43 18 24.5 18C19.6 18 8.4 18 3.5 18C1.57 18 0 16.43 0 14.5C0 11.6 0 6.4 0 3.5C0 1.56 1.57 0 3.5 0C8.4 0 19.6 0 24.5 0Z" id="b49rK3sxg3"></path><path d="M18.82 11.24C19.32 13.1 17.32 15.26 14.35 16.06C11.39 16.85 8.57 15.98 8.07 14.11C7.57 12.25 9.58 10.09 12.54 9.29C15.51 8.5 18.32 9.37 18.82 11.24Z" id="bCSblysk"></path><path d="M18.37 1.41C18.66 1.41 18.9 1.64 18.9 1.94C18.9 3.99 18.9 9.63 18.9 11.69C18.9 11.98 18.66 12.22 18.37 12.22C18.16 12.22 18.07 12.22 17.86 12.22C17.57 12.22 17.33 11.98 17.33 11.69C17.33 9.63 17.33 3.99 17.33 1.94C17.33 1.64 17.57 1.41 17.86 1.41C18.07 1.41 18.16 1.41 18.37 1.41Z" id="eT1nQBAXe"></path><path d="M18.31 2.25L18.87 3L19.62 3.5L20.44 3.94L21.12 4.5L21.5 5.31L21.75 6.19L21.75 7.13L21.75 8.06L21.44 8.94L21.12 9.81" id="c2RtiSTxgW"></path><path d="M21.6 9.94C21.6 10.21 21.37 10.44 21.1 10.44C20.82 10.44 20.6 10.21 20.6 9.94C20.6 9.66 20.82 9.44 21.1 9.44C21.37 9.44 21.6 9.66 21.6 9.94Z" id="d2uBdsKfIn"></path></defs><g><g><g><use xlink:href="#b49rK3sxg3" opacity="1" fill="#00a0a0" fill-opacity="1"></use></g><g><use xlink:href="#bCSblysk" opacity="1" fill="#ffffff" fill-opacity="1"></use></g><g><use xlink:href="#eT1nQBAXe" opacity="1" fill="#ffffff" fill-opacity="1"></use></g><g><g><use xlink:href="#c2RtiSTxgW" opacity="1" fill-opacity="0" stroke="#ffffff" stroke-width="1.5" stroke-opacity="1"></use></g></g><g><use xlink:href="#d2uBdsKfIn" opacity="1" fill="#ffffff" fill-opacity="1"></use><g><use xlink:href="#d2uBdsKfIn" opacity="1" fill-opacity="0" stroke="#f9f9f9" stroke-width="0.5" stroke-opacity="1"></use></g></g></g></g></svg>