<?xml version="1.0" encoding="UTF-8" standalone="no"?>
<!DOCTYPE svg PUBLIC "-//W3C//DTD SVG 1.1//EN" "http://www.w3.org/Graphics/SVG/1.1/DTD/svg11.dtd">
<svg version="1.1" xmlns="http://www.w3.org/2000/svg" xmlns:xlink="http://www.w3.org/1999/xlink" preserveAspectRatio="xMidYMid meet" viewBox="0 0 21 20" width="21" height="20"><defs><path d="M21 10C21 15.51 16.3 20 10.5 20C4.71 20 0 15.51 0 10C0 4.48 4.71 0 10.5 0C16.3 0 21 4.48 21 10Z" id="diQ6aSPrT"></path><path d="M16.08 10C16.08 13.08 13.58 15.57 10.5 15.57C7.43 15.57 4.93 13.08 4.93 10C4.93 6.92 7.43 4.43 10.5 4.43C13.58 4.43 16.08 6.92 16.08 10Z" id="a73Gv48iUn"></path><path d="M15.41 3.93C15.7 3.64 16.17 3.64 16.46 3.93C16.59 4.06 16.45 3.92 16.57 4.05C16.86 4.33 16.86 4.8 16.57 5.09C14.27 7.39 7.9 13.77 5.6 16.07C5.31 16.36 4.84 16.36 4.55 16.07C4.42 15.94 4.56 16.08 4.43 15.95C4.14 15.67 4.14 15.2 4.43 14.91C6.73 12.61 13.11 6.23 15.41 3.93Z" id="c2w2AaXBYb"></path></defs><g><g><g><use xlink:href="#diQ6aSPrT" opacity="1" fill="#5a465a" fill-opacity="1"></use></g><g><g><use xlink:href="#a73Gv48iUn" opacity="1" fill="#7dcda8" fill-opacity="0"></use><g><use xlink:href="#a73Gv48iUn" opacity="1" fill-opacity="0" stroke="#ffffff" stroke-width="2" stroke-opacity="1"></use></g></g><g><use xlink:href="#c2w2AaXBYb" opacity="1" fill="#ffffff" fill-opacity="0.97"></use></g></g></g></g></svg>