<?xml version="1.0" encoding="UTF-8" standalone="no"?>
<!DOCTYPE svg PUBLIC "-//W3C//DTD SVG 1.1//EN" "http://www.w3.org/Graphics/SVG/1.1/DTD/svg11.dtd">
<svg version="1.1" xmlns="http://www.w3.org/2000/svg" xmlns:xlink="http://www.w3.org/1999/xlink" preserveAspectRatio="xMidYMid meet" viewBox="0 0 28 18" width="28" height="18"><defs><path d="M24.5 0C26.43 0 28 1.56 28 3.5C28 6.4 28 11.6 28 14.5C28 16.43 26.43 18 24.5 18C19.6 18 8.4 18 3.5 18C1.57 18 0 16.43 0 14.5C0 11.6 0 6.4 0 3.5C0 1.56 1.57 0 3.5 0C8.4 0 19.6 0 24.5 0Z" id="a2N0RDUZxE"></path><path d="M18.82 11.24C19.32 13.1 17.32 15.26 14.35 16.06C11.39 16.85 8.57 15.98 8.07 14.11C7.57 12.25 9.58 10.09 12.54 9.29C15.51 8.5 18.32 9.37 18.82 11.24Z" id="lb8y7WA2p"></path><path d="M18.37 1.41C18.66 1.41 18.9 1.64 18.9 1.94C18.9 3.99 18.9 9.63 18.9 11.69C18.9 11.98 18.66 12.22 18.37 12.22C18.16 12.22 18.07 12.22 17.86 12.22C17.57 12.22 17.33 11.98 17.33 11.69C17.33 9.63 17.33 3.99 17.33 1.94C17.33 1.64 17.57 1.41 17.86 1.41C18.07 1.41 18.16 1.41 18.37 1.41Z" id="bkmv6I9M1"></path></defs><g><g><g><use xlink:href="#a2N0RDUZxE" opacity="1" fill="#5a465a" fill-opacity="1"></use></g><g><use xlink:href="#lb8y7WA2p" opacity="1" fill="#ffffff" fill-opacity="1"></use></g><g><use xlink:href="#bkmv6I9M1" opacity="1" fill="#ffffff" fill-opacity="1"></use></g></g></g></svg>