<?xml version="1.0" encoding="UTF-8" standalone="no"?>
<!DOCTYPE svg PUBLIC "-//W3C//DTD SVG 1.1//EN" "http://www.w3.org/Graphics/SVG/1.1/DTD/svg11.dtd">
<svg version="1.1" xmlns="http://www.w3.org/2000/svg" xmlns:xlink="http://www.w3.org/1999/xlink" preserveAspectRatio="xMidYMid meet" viewBox="0 0 20 20" width="20" height="20"><defs><path d="M15 0C17.76 0 20 2.24 20 5C20 8 20 12 20 15C20 17.76 17.76 20 15 20C12 20 8 20 5 20C2.24 20 0 17.76 0 15C0 12 0 8 0 5C0 2.24 2.24 0 5 0C8 0 12 0 15 0Z" id="kaPrZTeJh"></path><path d="M6.81 2.63C6.07 2.14 5.37 4.82 4.97 6.47C4.71 7.56 3.55 8.21 1.49 8.41" id="b4ssxdcoW"></path><path d="M18.51 5.77C18.11 5.6 17.75 6.83 17.42 9.45C16.95 10.55 16.54 11.18 16.17 11.34C15.81 11.51 15.53 12.47 15.33 14.23C14.89 16.29 14.38 17.5 13.78 17.86C12.89 18.41 12.14 12.39 11.99 11.64C11.84 10.9 11.19 10.6 10.45 10.2C9.7 9.8 9.25 7.61 8.86 5.77C8.59 4.54 7.91 3.48 6.81 2.57" id="b7JoyaRjht"></path><path d="M39.62 8.92C39.62 9.2 39.39 9.42 39.12 9.42C38.84 9.42 38.62 9.2 38.62 8.92C38.62 8.65 38.84 8.42 39.12 8.42C39.39 8.42 39.62 8.65 39.62 8.92Z" id="coNl6ONR"></path><path d="M19.51 5.82C19.51 6.37 19.06 6.82 18.51 6.82C17.96 6.82 17.51 6.37 17.51 5.82C17.51 5.27 17.96 4.82 18.51 4.82C19.06 4.82 19.51 5.27 19.51 5.82Z" id="aTObFXZKI"></path><path d="M2.49 8.41C2.49 8.96 2.04 9.41 1.49 9.41C0.94 9.41 0.49 8.96 0.49 8.41C0.49 7.86 0.94 7.41 1.49 7.41C2.04 7.41 2.49 7.86 2.49 8.41Z" id="b85Mp7yJe"></path><path d="M7.93 2.68C7.93 3.23 7.48 3.68 6.93 3.68C6.38 3.68 5.93 3.23 5.93 2.68C5.93 2.12 6.38 1.68 6.93 1.68C7.48 1.68 7.93 2.12 7.93 2.68Z" id="i5pLnLTSAi"></path></defs><g><g><g><use xlink:href="#kaPrZTeJh" opacity="1" fill="#00a0a0" fill-opacity="1"></use></g><g><g><use xlink:href="#b4ssxdcoW" opacity="1" fill-opacity="0" stroke="#ffffff" stroke-width="2" stroke-opacity="1"></use></g></g><g><g><use xlink:href="#b7JoyaRjht" opacity="1" fill-opacity="0" stroke="#ffffff" stroke-width="2" stroke-opacity="1"></use></g></g><g><use xlink:href="#coNl6ONR" opacity="1" fill="#ffffff" fill-opacity="1"></use></g><g><use xlink:href="#aTObFXZKI" opacity="1" fill="#ffffff" fill-opacity="1"></use></g><g><use xlink:href="#b85Mp7yJe" opacity="1" fill="#ffffff" fill-opacity="1"></use></g><g><use xlink:href="#i5pLnLTSAi" opacity="1" fill="#ffffff" fill-opacity="1"></use></g></g></g></svg>