<?xml version="1.0" encoding="UTF-8" standalone="no"?>
<!DOCTYPE svg PUBLIC "-//W3C//DTD SVG 1.1//EN" "http://www.w3.org/Graphics/SVG/1.1/DTD/svg11.dtd">
<svg version="1.1" xmlns="http://www.w3.org/2000/svg" xmlns:xlink="http://www.w3.org/1999/xlink" preserveAspectRatio="xMidYMid meet" viewBox="0 0 20 18" width="20" height="18"><defs><path d="M16.5 0C18.43 0 20 1.56 20 3.5C20 6.4 20 11.6 20 14.5C20 16.43 18.43 18 16.5 18C13.2 18 6.8 18 3.5 18C1.57 18 0 16.43 0 14.5C0 11.6 0 6.4 0 3.5C0 1.56 1.57 0 3.5 0C6.8 0 13.2 0 16.5 0Z" id="a37dUh1JWJ"></path><path d="M5.62 14.25C5.62 15.08 4.94 15.75 4.12 15.75C3.29 15.75 2.62 15.08 2.62 14.25C2.62 13.43 3.29 12.75 4.12 12.75C4.94 12.75 5.62 13.43 5.62 14.25Z" id="cxwcKYaMD"></path><path d="M16.2 14.25C16.2 15.08 15.52 15.75 14.7 15.75C13.87 15.75 13.2 15.08 13.2 14.25C13.2 13.43 13.87 12.75 14.7 12.75C15.52 12.75 16.2 13.43 16.2 14.25Z" id="b13YBoXHEG"></path><path d="M14.65 14.3L14.65 5.4L4.06 14.3" id="a41EQTFh15"></path></defs><g><g><g><use xlink:href="#a37dUh1JWJ" opacity="1" fill="#5a465a" fill-opacity="1"></use></g><g><g><use xlink:href="#cxwcKYaMD" opacity="1" fill="#ffffff" fill-opacity="1"></use><g><use xlink:href="#cxwcKYaMD" opacity="1" fill-opacity="0" stroke="#ffffff" stroke-width="0" stroke-opacity="1"></use></g></g><g><use xlink:href="#b13YBoXHEG" opacity="1" fill="#ffffff" fill-opacity="1"></use><g><use xlink:href="#b13YBoXHEG" opacity="1" fill-opacity="0" stroke="#ffffff" stroke-width="0" stroke-opacity="1"></use></g></g><g><g><use xlink:href="#a41EQTFh15" opacity="1" fill-opacity="0" stroke="#ffffff" stroke-width="3" stroke-opacity="1"></use></g></g></g></g></g></svg>