<?xml version="1.0" encoding="UTF-8" standalone="no"?>
<!DOCTYPE svg PUBLIC "-//W3C//DTD SVG 1.1//EN" "http://www.w3.org/Graphics/SVG/1.1/DTD/svg11.dtd">
<svg version="1.1" xmlns="http://www.w3.org/2000/svg" xmlns:xlink="http://www.w3.org/1999/xlink" preserveAspectRatio="xMidYMid meet" viewBox="0 0 20 18" width="20" height="18"><defs><path d="M16.5 0C18.43 0 20 1.56 20 3.5C20 6.4 20 11.6 20 14.5C20 16.43 18.43 18 16.5 18C13.2 18 6.8 18 3.5 18C1.57 18 0 16.43 0 14.5C0 11.6 0 6.4 0 3.5C0 1.56 1.57 0 3.5 0C6.8 0 13.2 0 16.5 0Z" id="c3DKhpvmAg"></path><path d="M16.9 8.84C14.42 16.2 12.2 16.26 10.24 9.02C8.28 1.78 5.9 1.78 3.1 9.02" id="bfomtrTnz"></path><path d="M4.6 9C4.6 9.83 3.93 10.5 3.1 10.5C2.27 10.5 1.6 9.83 1.6 9C1.6 8.17 2.27 7.5 3.1 7.5C3.93 7.5 4.6 8.17 4.6 9Z" id="b5j9yxKBIf"></path><path d="M18.4 9C18.4 9.83 17.73 10.5 16.9 10.5C16.07 10.5 15.4 9.83 15.4 9C15.4 8.17 16.07 7.5 16.9 7.5C17.73 7.5 18.4 8.17 18.4 9Z" id="aNfKJSs1k"></path></defs><g><g><g><use xlink:href="#c3DKhpvmAg" opacity="1" fill="#5a465a" fill-opacity="1"></use></g><g><g><use xlink:href="#bfomtrTnz" opacity="1" fill-opacity="0" stroke="#ffffff" stroke-width="3" stroke-opacity="1"></use></g></g><g><use xlink:href="#b5j9yxKBIf" opacity="1" fill="#ffffff" fill-opacity="1"></use><g><use xlink:href="#b5j9yxKBIf" opacity="1" fill-opacity="0" stroke="#ffffff" stroke-width="0" stroke-opacity="1"></use></g></g><g><use xlink:href="#aNfKJSs1k" opacity="1" fill="#ffffff" fill-opacity="1"></use><g><use xlink:href="#aNfKJSs1k" opacity="1" fill-opacity="0" stroke="#ffffff" stroke-width="0" stroke-opacity="1"></use></g></g></g></g></svg>