<?xml version="1.0" encoding="UTF-8" standalone="no"?>
<!DOCTYPE svg PUBLIC "-//W3C//DTD SVG 1.1//EN" "http://www.w3.org/Graphics/SVG/1.1/DTD/svg11.dtd">
<svg version="1.1" xmlns="http://www.w3.org/2000/svg" xmlns:xlink="http://www.w3.org/1999/xlink" preserveAspectRatio="xMidYMid meet" viewBox="0 0 28 18" width="28" height="18"><defs><path d="M24.5 0C26.43 0 28 1.56 28 3.5C28 6.4 28 11.6 28 14.5C28 16.43 26.43 18 24.5 18C19.6 18 8.4 18 3.5 18C1.57 18 0 16.43 0 14.5C0 11.6 0 6.4 0 3.5C0 1.56 1.57 0 3.5 0C8.4 0 19.6 0 24.5 0Z" id="cbJl6Ssaj"></path><path d="M18.82 11.24C19.32 13.1 17.32 15.26 14.35 16.06C11.39 16.85 8.57 15.98 8.07 14.11C7.57 12.25 9.58 10.09 12.54 9.29C15.51 8.5 18.32 9.37 18.82 11.24Z" id="d1460s3DA9"></path><path d="M18.37 1.41C18.66 1.41 18.9 1.64 18.9 1.94C18.9 3.99 18.9 9.63 18.9 11.69C18.9 11.98 18.66 12.22 18.37 12.22C18.16 12.22 18.07 12.22 17.86 12.22C17.57 12.22 17.33 11.98 17.33 11.69C17.33 9.63 17.33 3.99 17.33 1.94C17.33 1.64 17.57 1.41 17.86 1.41C18.07 1.41 18.16 1.41 18.37 1.41Z" id="cyDqs2iXv"></path><path d="M18.11 2L18.68 2.75L19.43 3.25L20.24 3.69L20.93 4.25L21.3 5.06L21.55 5.94L21.55 6.88L21.55 7.81L21.24 8.69L20.93 9.56" id="bKfoV9QQ"></path><path d="M17.93 5.49L18.49 6.24L19.24 6.74L20.05 7.18L20.74 7.74L21.11 8.55L21.36 9.43L21.36 10.36L21.36 11.3L21.05 12.18L20.74 13.05" id="b1FQGfFdpV"></path><path d="M21.21 13.18C21.21 13.45 20.99 13.68 20.71 13.68C20.44 13.68 20.21 13.45 20.21 13.18C20.21 12.9 20.44 12.68 20.71 12.68C20.99 12.68 21.21 12.9 21.21 13.18Z" id="aBeABy7GG"></path><path d="M20.61 9.76C20.61 10.27 20.26 10.69 19.83 10.69C19.4 10.69 19.05 10.27 19.05 9.76C19.05 9.25 19.4 8.83 19.83 8.83C20.26 8.83 20.61 9.25 20.61 9.76Z" id="bxshQ40Qr"></path><path d="M20.75 9.35C20.75 9.87 20.4 10.28 19.97 10.28C19.54 10.28 19.19 9.87 19.19 9.35C19.19 8.84 19.54 8.43 19.97 8.43C20.4 8.43 20.75 8.84 20.75 9.35Z" id="bod7Pukz7"></path><path d="M20.84 9.76C20.84 10.27 20.49 10.69 20.06 10.69C19.63 10.69 19.28 10.27 19.28 9.76C19.28 9.25 19.63 8.83 20.06 8.83C20.49 8.83 20.84 9.25 20.84 9.76Z" id="d1PBNwMan9"></path><path d="M20.75 10.69C20.75 11.2 20.4 11.62 19.97 11.62C19.54 11.62 19.19 11.2 19.19 10.69C19.19 10.18 19.54 9.76 19.97 9.76C20.4 9.76 20.75 10.18 20.75 10.69Z" id="ajmwJViVw"></path><path d="M20.53 9C20.53 9.51 20.18 9.93 19.75 9.93C19.32 9.93 18.97 9.51 18.97 9C18.97 8.49 19.32 8.07 19.75 8.07C20.18 8.07 20.53 8.49 20.53 9Z" id="a21Ri8ekP2"></path><path d="M20.84 10.28C20.84 10.79 20.49 11.21 20.06 11.21C19.63 11.21 19.28 10.79 19.28 10.28C19.28 9.77 19.63 9.35 20.06 9.35C20.49 9.35 20.84 9.77 20.84 10.28Z" id="aNog0rdgm"></path></defs><g><g><g><use xlink:href="#cbJl6Ssaj" opacity="1" fill="#00a0a0" fill-opacity="1"></use></g><g><use xlink:href="#d1460s3DA9" opacity="1" fill="#ffffff" fill-opacity="1"></use></g><g><use xlink:href="#cyDqs2iXv" opacity="1" fill="#ffffff" fill-opacity="1"></use></g><g><g><use xlink:href="#bKfoV9QQ" opacity="1" fill-opacity="0" stroke="#ffffff" stroke-width="1.5" stroke-opacity="1"></use></g></g><g><g><g><use xlink:href="#b1FQGfFdpV" opacity="1" fill-opacity="0" stroke="#ffffff" stroke-width="1.5" stroke-opacity="1"></use></g></g><g><use xlink:href="#aBeABy7GG" opacity="1" fill="#ffffff" fill-opacity="1"></use><g><use xlink:href="#aBeABy7GG" opacity="1" fill-opacity="0" stroke="#f9f9f9" stroke-width="0.5" stroke-opacity="1"></use></g></g></g><g><use xlink:href="#bxshQ40Qr" opacity="1" fill="#00a0a0" fill-opacity="1"></use></g><g><use xlink:href="#bod7Pukz7" opacity="1" fill="#00a0a0" fill-opacity="1"></use></g><g><use xlink:href="#d1PBNwMan9" opacity="1" fill="#00a0a0" fill-opacity="1"></use></g><g><use xlink:href="#ajmwJViVw" opacity="1" fill="#00a0a0" fill-opacity="1"></use></g><g><use xlink:href="#a21Ri8ekP2" opacity="1" fill="#00a0a0" fill-opacity="1"></use></g><g><use xlink:href="#aNog0rdgm" opacity="1" fill="#00a0a0" fill-opacity="1"></use></g></g></g></svg>