<?xml version="1.0" encoding="UTF-8" standalone="no"?>
<!DOCTYPE svg PUBLIC "-//W3C//DTD SVG 1.1//EN" "http://www.w3.org/Graphics/SVG/1.1/DTD/svg11.dtd">
<svg version="1.1" xmlns="http://www.w3.org/2000/svg" xmlns:xlink="http://www.w3.org/1999/xlink" preserveAspectRatio="xMidYMid meet" viewBox="0 0 20 18" width="20" height="18"><defs><path d="M16.5 0C18.43 0 20 1.56 20 3.5C20 6.4 20 11.6 20 14.5C20 16.43 18.43 18 16.5 18C13.2 18 6.8 18 3.5 18C1.57 18 0 16.43 0 14.5C0 11.6 0 6.4 0 3.5C0 1.56 1.57 0 3.5 0C6.8 0 13.2 0 16.5 0Z" id="gVLEnxqWp"></path><path d="M5.17 9.1C5.17 9.93 4.5 10.6 3.67 10.6C2.84 10.6 2.17 9.93 2.17 9.1C2.17 8.27 2.84 7.6 3.67 7.6C4.5 7.6 5.17 8.27 5.17 9.1Z" id="b1fGTj7fS"></path><path d="M18.04 9.1C18.04 9.93 17.36 10.6 16.54 10.6C15.71 10.6 15.04 9.93 15.04 9.1C15.04 8.27 15.71 7.6 16.54 7.6C17.36 7.6 18.04 8.27 18.04 9.1Z" id="b18uTTIhkV"></path><path d="M16.54 9.1L13.13 14.14L7.07 4.06L3.67 9.1" id="f4xYFipbHl"></path></defs><g><g><g><use xlink:href="#gVLEnxqWp" opacity="1" fill="#5a465a" fill-opacity="1"></use></g><g><use xlink:href="#b1fGTj7fS" opacity="1" fill="#ffffff" fill-opacity="1"></use><g><use xlink:href="#b1fGTj7fS" opacity="1" fill-opacity="0" stroke="#ffffff" stroke-width="0" stroke-opacity="1"></use></g></g><g><use xlink:href="#b18uTTIhkV" opacity="1" fill="#ffffff" fill-opacity="1"></use><g><use xlink:href="#b18uTTIhkV" opacity="1" fill-opacity="0" stroke="#ffffff" stroke-width="0" stroke-opacity="1"></use></g></g><g><use xlink:href="#f4xYFipbHl" opacity="1" fill="#ffffff" fill-opacity="0"></use><g><use xlink:href="#f4xYFipbHl" opacity="1" fill-opacity="0" stroke="#ffffff" stroke-width="3" stroke-opacity="1"></use></g></g></g></g></svg>