<?xml version="1.0" encoding="UTF-8" standalone="no"?>
<!DOCTYPE svg PUBLIC "-//W3C//DTD SVG 1.1//EN" "http://www.w3.org/Graphics/SVG/1.1/DTD/svg11.dtd">
<svg version="1.1" xmlns="http://www.w3.org/2000/svg" xmlns:xlink="http://www.w3.org/1999/xlink" preserveAspectRatio="xMidYMid meet" viewBox="0 0 28 18" width="28" height="18"><defs><path d="M24.5 0C26.43 0 28 1.56 28 3.5C28 6.4 28 11.6 28 14.5C28 16.43 26.43 18 24.5 18C19.6 18 8.4 18 3.5 18C1.56 18 0 16.43 0 14.5C0 11.6 0 6.4 0 3.5C0 1.56 1.56 0 3.5 0C8.4 0 19.6 0 24.5 0Z" id="a3ARPUtUWV"></path><path d="M23.53 9C23.53 12.83 19.26 15.93 14 15.93C8.74 15.93 4.47 12.83 4.47 9C4.47 5.17 8.74 2.06 14 2.06C19.26 2.06 23.53 5.17 23.53 9Z" id="a6Zl1opa31"></path><path d="M16.9 14.03C14.98 15.13 12.12 13.78 10.52 11C8.92 8.23 9.17 5.08 11.09 3.97C13.01 2.86 15.87 4.21 17.48 6.99C19.08 9.76 18.82 12.92 16.9 14.03Z" id="a1ylr9wmyB"></path></defs><g><g><g><use xlink:href="#a3ARPUtUWV" opacity="1" fill="#00a0a0" fill-opacity="1"></use></g><g><use xlink:href="#a6Zl1opa31" opacity="1" fill="#ffffff" fill-opacity="1"></use></g><g><use xlink:href="#a1ylr9wmyB" opacity="1" fill="#00a0a0" fill-opacity="1"></use></g></g></g></svg>